<?xml version="1.0" encoding="UTF-8" standalone="no"?>
<svg
   viewBox="-0.004 -0.001 127.495 127.532"
   version="1.1"
   id="svg3"
   sodipodi:docname="icon.svg"
   inkscape:version="1.1.2 (0a00cf5339, 2022-02-04)"
   inkscape:export-filename="icon.png"
   inkscape:export-xdpi="96"
   inkscape:export-ydpi="96"
   xmlns:inkscape="http://www.inkscape.org/namespaces/inkscape"
   xmlns:sodipodi="http://sodipodi.sourceforge.net/DTD/sodipodi-0.dtd"
   xmlns="http://www.w3.org/2000/svg"
   xmlns:svg="http://www.w3.org/2000/svg">
  <sodipodi:namedview
     id="namedview3"
     pagecolor="#ffffff"
     bordercolor="#000000"
     borderopacity="0.25"
     inkscape:showpageshadow="2"
     inkscape:pageopacity="0.0"
     inkscape:pagecheckerboard="0"
     inkscape:deskcolor="#d1d1d1"
     inkscape:zoom="4.0000002"
     inkscape:cx="12.874999"
     inkscape:cy="62.374997"
     inkscape:window-width="1920"
     inkscape:window-height="935"
     inkscape:window-x="0"
     inkscape:window-y="32"
     inkscape:window-maximized="1"
     inkscape:current-layer="svg3"
     inkscape:pageshadow="2"
     showgrid="false" />
  <defs
     id="defs1">
    <style
       id="style1">.a{fill:#fff;}.b{fill:#b5e7d6;}.c{fill:#0b9fa3;}.d{fill:#14d6c4;}</style>
  </defs>
  <path
     class="b"
     d="M118.247,27.22c-.045-.053-.086-.109-.131-.162-.53-.632-1.08-1.253-1.639-1.869-.073-.081-.141-.164-.214-.245l0,0c-1.062-1.16-2.165-2.26-3.291-3.323-.117-.11-.23-.224-.348-.333-1.107-1.03-2.246-2.007-3.409-2.943-.122-.1-.244-.2-.368-.3q-1.8-1.434-3.69-2.719l-.144-.1a63.869,63.869,0,0,0-66.3-3.193l.016.018A63.7,63.7,0,0,1,69.945,4.3,16.3,16.3,0,0,1,83.658,20.665,15.888,15.888,0,0,1,71.027,35.9c-.3-.015-.6-.008-.893-.015A32.148,32.148,0,0,1,101.406,67.9c0,.09-.024,1.376-.055,1.929-.016.279-.142,1.777-.2,2.245-.054.423-.3,1.964-.371,2.312-.156.769-.688,2.728-.754,2.948a32.085,32.085,0,0,1-4.567,9.341,15.819,15.819,0,0,0,5.81,20.019,16.269,16.269,0,0,0,20.633-2.7c.185-.243.289-.467.439-.692l-.072.111A63.913,63.913,0,0,0,118.247,27.22Z"
     transform="matrix(1, 0, 0, 1, -5.473, -4.267)"
     id="path1" />
  <path
     class="c"
     d="M17.7,105.389a16.068,16.068,0,0,1,4.213-21.915,15.694,15.694,0,0,1,20.12,1.847c.021.033.044.066.066.1a32.316,32.316,0,0,1-5-18.658c0-.076.005-.151.008-.227a32.3,32.3,0,0,1,.788-5.7c.05-.22.58-2.218.836-2.986.044-.133.079-.269.126-.4.3-.853.638-1.694,1.008-2.524.112-.252.235-.5.354-.749.3-.623,1.217-2.325,1.357-2.561q.691-1.164,1.486-2.281c.14-.195,1.329-1.721,1.806-2.275.2-.232.4-.464.61-.692.6-.657,1.226-1.3,1.89-1.916.048-.045,1.652-1.438,2.436-2.035.236-.178,1.852-1.3,2.434-1.666.28-.175.556-.359.84-.524a32.212,32.212,0,0,1,8.672-3.478c.116-.027.232-.048.348-.074.589-.134,1.18-.256,1.774-.356.282-.048.565-.083.849-.124.421-.06.842-.118,1.265-.16.4-.041.794-.069,1.192-.1.3-.019.6-.038.9-.049.49-.018.98-.023,1.47-.019.2,0,.391,0,.587.01.3.007.595,0,.893.015A15.888,15.888,0,0,0,83.658,20.665,16.3,16.3,0,0,0,69.945,4.3,63.717,63.717,0,0,0,30.038,17.743c-.218.169-.434.34-.65.513-1.1.879-2.18,1.785-3.232,2.748l-.006.005-.013.013c-.729.668-1.433,1.354-2.124,2.048-.228.229-.449.462-.673.694q-.694.719-1.363,1.454c-.249.274-.5.549-.74.827-.42.479-.827.964-1.23,1.452-.225.273-.456.542-.676.818q-.829,1.042-1.612,2.111c-.28.382-.545.773-.815,1.161-.257.368-.515.736-.763,1.109-.3.457-.6.918-.891,1.381q-.27.432-.534.866c-.318.525-.633,1.05-.935,1.582-.061.107-.118.216-.178.323a63.8,63.8,0,0,0,6.408,71.721c-.7-.908-1.343-1.773-1.921-2.605C17.958,105.78,17.833,105.592,17.7,105.389Z"
     transform="matrix(1, 0, 0, 1, -5.473, -4.267)"
     id="path2" />
  <path
     class="d"
     d="M101.268,106.7a15.82,15.82,0,0,1-5.81-20.019l.01-.015a31,31,0,0,1-7.076,7.2q-.984.732-2.007,1.377c-.172.108-.343.216-.516.321q-1.044.632-2.124,1.178c-.117.059-.231.126-.349.184q-1.239.607-2.514,1.1c-.214.082-.432.15-.647.228q-.9.327-1.81.6c-.379.113-.76.215-1.142.313-.424.11-.851.206-1.279.3-.474.1-.949.205-1.427.285-.191.032-.383.051-.575.08a32.364,32.364,0,0,1-17.265-2.176s-3.257-1.474-4.779-2.43a31.785,31.785,0,0,1-4.726-3.639c-.606-.562-1.2-1.143-1.768-1.763-.285-.311-.556-.63-.826-.95-.04-.047-.083-.093-.122-.14-.268-.321-.524-.647-.778-.975-.041-.054-.084-.106-.124-.159-.258-.339-.506-.682-.748-1.028-.03-.043-.061-.085-.09-.128q-.35-.5-.677-1.019c-.022-.033-.045-.066-.066-.1a15.694,15.694,0,0,0-20.12-1.847A16.068,16.068,0,0,0,17.7,105.389c.133.2.258.391.39.575.578.832,1.22,1.7,1.921,2.605.076.093.149.188.227.281.628.753,1.272,1.5,1.941,2.23.013.013.024.028.037.041l.022.024c.648.707,1.316,1.385,1.988,2.056.237.234.473.469.712.7q.886.855,1.8,1.669c.342.305.69.6,1.037.9.173.148.349.29.523.436,1.309,1.1,2.643,2.151,4.018,3.128l-.005,0c.34.242.69.468,1.034.7.412.28.82.57,1.237.84.8.521,1.617,1.019,2.438,1.5.235.137.475.264.711.4.641.364,1.286.722,1.936,1.063.238.124.478.241.717.361q1.01.513,2.032.989c.2.1.41.186.615.278q1.125.507,2.265.968l.417.168q1.337.529,2.692,1l.027.01a63.888,63.888,0,0,0,50.707-3.935c.113-.061.225-.125.338-.186q1.128-.607,2.239-1.264c.221-.132.441-.267.662-.4q.942-.575,1.869-1.184c.267-.176.532-.352.8-.531q.861-.586,1.705-1.2c.275-.2.551-.4.823-.6.575-.434,1.142-.884,1.706-1.34.239-.193.481-.378.718-.575.789-.657,1.569-1.331,2.334-2.033a63.944,63.944,0,0,0,9.573-11.064A16.314,16.314,0,0,1,101.268,106.7Z"
     transform="matrix(1, 0, 0, 1, -5.473, -4.267)"
     id="path3" />
  <path
     style="fill:#714b67;fill-opacity:1;stroke:#ffffff;stroke-width:0.116788"
     d="M 10.193783,98.193753 C 5.1582868,90.428377 1.7711258,81.144016 0.58982947,71.868883 -0.06163627,66.753798 -0.08221119,61.150002 0.53177825,56.058021 2.7413248,37.733651 12.919004,21.179244 28.320979,10.857758 31.62222,8.645464 36.608498,6.0167705 40.174915,4.6085352 47.440677,1.7395769 55.6424,0.11909294 62.906503,0.11726253 c 1.640246,-4.1331e-4 2.032724,0.0379035 3.022574,0.29508829 4.186499,1.08774408 7.716446,3.74552748 9.922388,7.47080838 3.202154,5.4076358 2.98976,12.0196748 -0.55285,17.2106388 -0.334599,0.490286 -1.161222,1.446281 -1.836941,2.124431 -1.88946,1.896262 -3.949317,3.158285 -6.425624,3.936821 -1.042449,0.32774 -1.261186,0.353019 -3.620414,0.418422 -5.428047,0.150476 -9.335967,1.089171 -13.976848,3.357283 -4.017473,1.963437 -7.89273,5.090837 -10.828424,8.738728 -6.043361,7.509472 -8.408463,17.673703 -6.304255,27.093087 0.64904,2.905399 1.451292,5.1382 2.811947,7.826121 0.468879,0.926253 0.852507,1.697872 0.852507,1.714709 0,0.01684 -0.47528,-0.326293 -1.056178,-0.762513 -1.869729,-1.404052 -4.30393,-2.490236 -6.593406,-2.942093 -1.094711,-0.216056 -4.744665,-0.216056 -5.839377,0 -4.950873,0.977117 -9.180805,4.259615 -11.320065,8.784559 -1.006257,2.128426 -1.4452781,3.913551 -1.5518069,6.309874 -0.106054,2.385642 0.2852033,4.630451 1.1967629,6.866331 0.221011,0.542097 0.382974,1.004495 0.359919,1.02755 -0.02305,0.02306 -0.460738,-0.603954 -0.972629,-1.393355 z"
     id="path4"
     transform="translate(-0.004,-0.001)" />
  <path
     style="fill:#cec0ca;fill-opacity:1;stroke:#ffffff;stroke-width:0.116788"
     d="m 102.71464,104.8026 c -2.3558,-0.3584 -3.887064,-0.83247 -5.67567,-1.75718 -3.041519,-1.57246 -5.476979,-4.095018 -6.927081,-7.174801 -1.078677,-2.290937 -1.503367,-4.176213 -1.510039,-6.703329 -0.0086,-3.271535 0.607119,-5.421267 2.308183,-8.058341 6.173058,-9.569785 6.736338,-21.970647 1.4608,-32.160127 C 87.421517,39.389427 77.949879,32.890002 67.3115,31.753143 l -1.301181,-0.139049 1.318649,-0.441883 c 3.526432,-1.181716 6.256836,-3.283499 8.31667,-6.401919 1.100824,-1.666559 1.859377,-3.537943 2.330136,-5.74855 0.286911,-1.347288 0.285892,-4.422337 -0.0019,-5.868428 C 77.333624,9.9369128 75.938518,7.2090887 73.777848,4.948989 71.591945,2.6624936 69.347029,1.2751836 66.452112,0.42183932 L 65.459418,0.1292196 66.224389,0.1230036 C 66.645123,0.1195846 67.696211,0.172383 68.56014,0.24033304 79.759249,1.1211687 90.233802,4.7675671 99.444593,10.991821 c 3.538947,2.39147 6.176317,4.580462 9.407027,7.807757 3.99533,3.9911 7.17643,8.120786 9.98062,12.956759 1.1805,2.035851 3.24499,6.281337 4.07403,8.377994 2.138,5.406989 3.60307,11.417426 4.23733,17.383534 0.294,2.765508 0.29395,9.811858 -9e-5,12.437874 -0.91489,8.170789 -2.81926,14.860736 -6.20018,21.780877 -1.92899,3.948299 -4.27077,7.787465 -5.3413,8.756644 -2.27607,2.06058 -4.89544,3.42242 -7.75262,4.03067 -1.13269,0.24113 -4.26433,0.41109 -5.13477,0.27867 z"
     id="path5"
     transform="translate(-0.004,-0.001)" />
  <path
     style="fill:#9f8397;fill-opacity:1;stroke:#ffffff;stroke-width:0.116788"
     d="M 61.430248,127.39991 C 47.457151,126.94772 33.887621,121.75424 23.004822,112.69329 17.980324,108.50992 13.16078,103.03957 11.387573,99.507303 10.853784,98.443983 10.125799,96.251167 9.9128095,95.065061 9.6623135,93.670089 9.7227176,90.594936 10.029193,89.14 c 1.300285,-6.172862 6.168082,-11.086945 12.238189,-12.35456 1.275933,-0.266452 4.991884,-0.266452 6.267817,0 1.916561,0.400234 4.046239,1.318405 5.713127,2.463109 1.460765,1.003154 2.050208,1.563787 2.789542,2.653192 2.280918,3.360925 5.193106,6.265228 8.59494,8.571671 1.248817,0.846698 4.767119,2.643822 6.491678,3.315902 2.308001,0.899456 4.937663,1.561527 7.670736,1.931265 1.981178,0.268018 5.941716,0.268488 7.999947,9.49e-4 5.996588,-0.779468 11.423146,-3.079257 16.195412,-6.863655 1.383954,-1.097474 3.707199,-3.383654 4.703385,-4.628347 0.374249,-0.46761 0.697418,-0.833236 0.71815,-0.812504 0.02073,0.02073 -0.09233,0.447152 -0.251251,0.947597 -0.73548,2.316041 -0.900671,5.444403 -0.41086,7.780753 1.409771,6.724455 6.343031,11.465098 13.147125,12.633788 1.15679,0.1987 1.69708,0.22908 3.09487,0.17404 3.86549,-0.15223 7.22901,-1.42218 10.01453,-3.78115 0.33723,-0.28559 0.61314,-0.48725 0.61314,-0.44813 0,0.0892 -1.11355,1.59283 -2.03641,2.74984 -8.79423,11.0256 -20.880602,18.76227 -34.576487,22.13294 -5.870083,1.44468 -11.282647,1.99688 -17.576525,1.79321 z"
     id="path6"
     transform="translate(-0.004,-0.001)" />
  <path
     style="fill:#1d62ed;fill-opacity:1.0;stroke:#ffffff;stroke-width:0.0883883"
     d="M 9.9672336,97.606523 C 7.5419246,93.784921 5.608069,89.825052 3.9977801,85.38314 -5.4696623,59.267636 3.0669549,30.211048 25.190678,13.247622 29.980926,9.5746868 36.307524,6.1044088 41.896075,4.084346 48.150308,1.8236627 54.859634,0.49002756 61.050313,0.2769938 63.893921,0.1791395 65.005745,0.2576631 66.355834,0.65170155 70.237153,1.7845064 73.6181,4.3880894 75.693668,7.8425334 c 2.959105,4.9249476 3.059869,11.0128276 0.264177,15.9608306 -0.676771,1.197795 -1.408782,2.141023 -2.550541,3.286486 -1.881187,1.887291 -3.846648,3.118261 -6.232163,3.903211 -1.02179,0.336218 -1.389101,0.383858 -3.668116,0.475746 -4.347711,0.175297 -7.094991,0.639717 -10.208854,1.725778 -3.636998,1.268523 -6.673641,2.951356 -9.811106,5.437075 -1.19567,0.947293 -3.997753,3.749578 -4.943439,4.943793 -3.840362,4.849624 -6.134416,10.402237 -6.901812,16.705397 -0.178262,1.464193 -0.207685,4.873862 -0.05568,6.45235 0.415835,4.318201 1.462621,7.945417 3.421416,11.855547 0.337123,0.672964 0.612953,1.248709 0.612953,1.279434 0,0.03072 -0.135783,-0.0477 -0.301738,-0.174283 -1.758607,-1.341355 -3.931457,-2.403005 -6.206804,-3.03263 -0.864906,-0.239333 -0.894526,-0.24128 -3.700312,-0.243142 l -2.828427,-0.0019 -1.042784,0.284547 c -5.399444,1.473363 -9.49617,5.323551 -11.245742,10.56898 -1.0702304,3.208678 -1.0524855,7.003455 0.04821,10.31054 0.185995,0.558835 0.326383,1.02785 0.311973,1.042258 -0.01441,0.01441 -0.323853,-0.442817 -0.6876484,-1.016051 z"
     id="path7"
     transform="translate(-0.004,-0.001)" />
  <path
     style="fill:#00d3b5;fill-opacity:1.0;stroke:#ffffff;stroke-width:0.0883883"
     d="m 101.91176,104.57136 c -2.60344,-0.51289 -4.405603,-1.23655 -6.372404,-2.55882 -3.529127,-2.372616 -5.984792,-6.22169 -6.662013,-10.442216 -0.180716,-1.126253 -0.179886,-3.788085 0.0016,-5.010085 0.283323,-1.908079 0.931317,-3.480018 2.470992,-5.994264 2.5221,-4.118519 3.98949,-8.481419 4.563242,-13.56761 0.146997,-1.303095 0.14614,-5.127334 -0.0014,-6.45235 -0.989817,-8.886535 -5.16957,-16.567952 -11.986963,-22.029258 -4.573364,-3.66365 -10.438579,-6.150474 -15.99829,-6.7832 -1.449142,-0.16492 -1.442119,-0.1547 -0.367169,-0.53438 5.314306,-1.87705 9.067207,-6.087554 10.39755,-11.665353 0.427201,-1.791148 0.429859,-5.015222 0.0057,-6.914648 C 76.726872,7.0858187 72.74465,2.5694014 67.368527,0.60404964 l -0.944687,-0.34534971 1.20822,0.046415 c 2.289791,0.0879647 5.673294,0.51733345 8.470304,1.07488717 9.100149,1.8140165 17.443974,5.4525201 25.013906,10.9078469 4.27985,3.084314 8.85396,7.45613 12.34388,11.797975 3.17059,3.944553 5.61704,7.950386 8.11256,13.283529 2.69951,5.769093 4.5322,12.391093 5.39913,19.508546 0.23881,1.960533 0.35279,6.627034 0.23911,9.789472 -0.33552,9.334395 -2.87688,18.573016 -7.48332,27.204135 -1.43905,2.696348 -2.83735,4.950233 -3.73781,6.024885 -1.07904,1.287769 -3.51576,2.923369 -5.54858,3.724389 -1.95285,0.7695 -3.29627,1.01156 -5.96622,1.07503 -1.44378,0.0343 -1.85988,0.0141 -2.56326,-0.12445 z"
     id="path8"
     transform="translate(-0.004,-0.001)" />
  <path
     style="fill:#ff7957;fill-opacity:1;stroke:#ffffff;stroke-width:0.0883883"
     d="m 61.65087,127.30754 c -13.604684,-0.40558 -26.952467,-5.3649 -37.741823,-14.02285 -5.283298,-4.2396 -10.676348,-10.27546 -12.465313,-13.951088 -0.507169,-1.042033 -1.232675,-3.253249 -1.418608,-4.323665 -0.1926361,-1.109009 -0.1324114,-4.807838 0.09486,-5.826098 0.712913,-3.194093 2.234353,-5.921552 4.563792,-8.181425 1.825834,-1.771308 3.678849,-2.902997 5.999093,-3.663817 1.712677,-0.561595 1.811964,-0.573486 4.772971,-0.571635 2.536373,0.0016 2.74004,0.01373 3.442955,0.205327 2.353169,0.641412 4.195969,1.534468 6.074826,2.943979 0.946351,0.709947 1.299857,1.092698 2.237277,2.422352 2.189825,3.106089 5.275999,6.155921 8.196986,8.100459 1.559342,1.038073 4.653448,2.635199 6.608653,3.411275 2.551704,1.012843 5.940662,1.813107 8.718117,2.058683 1.806314,0.15971 6.167073,0.05864 7.722115,-0.178976 6.1921,-0.946177 12.172683,-3.699548 16.585608,-7.635766 1.012083,-0.902752 3.097355,-3.013702 3.662565,-3.707666 0.228626,-0.280706 0.426005,-0.499468 0.43862,-0.486136 0.01261,0.01333 -0.09101,0.458542 -0.230288,0.989356 -0.545852,2.080416 -0.680406,5.150488 -0.308285,7.034028 1.431988,7.248188 6.887895,12.249503 14.277819,13.088183 1.93542,0.21965 4.81911,-0.11859 6.9839,-0.81918 1.40766,-0.45557 3.19607,-1.38862 4.38176,-2.28606 0.32383,-0.24512 0.60788,-0.42657 0.6312,-0.40325 0.0506,0.0506 -0.77689,1.15704 -1.82499,2.44011 -8.70626,10.65804 -20.578975,18.19193 -33.902919,21.51326 -5.781238,1.44111 -11.379441,2.03309 -17.500892,1.8506 z"
     id="path9"
     transform="translate(-0.004,-0.001)" />
  <path
     style="fill:#00a1c8;fill-opacity:1.0;fill-rule:evenodd;stroke-width:0.25"
     d="m 57.999997,126.94778 c -2.132015,-0.19861 -7.312872,-1.11169 -9.606022,-1.69298 -7.837807,-1.98678 -16.008362,-5.87284 -22.430161,-10.66818 -7.129296,-5.32365 -13.33382,-12.34743 -15.016553,-16.999361 -0.542628,-1.5001 -0.683503,-2.389411 -0.767652,-4.846013 -0.09426,-2.751709 -0.04603,-3.178659 0.564572,-4.9976 1.672591,-4.982565 5.403496,-8.735336 10.186621,-10.246325 1.539846,-0.486437 2.49943,-0.621677 4.394602,-0.619358 2.811062,0.0034 4.484938,0.391076 6.924594,1.603593 2.305755,1.145968 3.324338,2.026192 5.184123,4.479938 3.252557,4.291333 6.711524,7.204718 11.355339,9.564265 5.386275,2.736794 10.089402,3.752975 16.312542,3.524569 8.364642,-0.307006 15.180641,-3.181782 21.085494,-8.893203 1.340625,-1.296708 2.434027,-2.200034 2.42978,-2.007391 -0.0042,0.192644 -0.117723,1.194012 -0.252175,2.225262 -0.820815,6.295707 2.598617,12.882744 8.221472,15.837474 4.838167,2.54238 10.979977,2.57001 15.687017,0.0706 0.88077,-0.46769 1.6014,-0.79274 1.6014,-0.72233 0,0.32468 -3.70602,4.43842 -6.03719,6.70137 -10.0358,9.74211 -22.941057,15.85752 -36.912874,17.49189 -2.871979,0.33595 -10.216892,0.4461 -12.924929,0.19382 z"
     id="path1058"
     transform="translate(-0.004,-0.001)" />
  <path
     style="fill:#00a1c8;fill-opacity:1;fill-rule:evenodd;stroke-width:0.25"
     d="m 53.999997,126.23304 c -7.057257,-1.21776 -11.976707,-2.82638 -18.363716,-6.00478 -6.715838,-3.34204 -11.334606,-6.6638 -16.645348,-11.97113 -4.625194,-4.62223 -7.631566,-8.991743 -8.347307,-12.132135 -0.141022,-0.61875 -0.257261,-2.475 -0.25831,-4.125 -0.0018,-2.81092 0.04935,-3.126052 0.811371,-4.999999 1.935278,-4.75921 5.594914,-8.153561 10.235875,-9.493881 1.91117,-0.551951 5.974941,-0.552503 7.871804,-0.0011 1.661004,0.482867 4.091247,1.669815 5.288849,2.583112 0.463768,0.353672 1.713661,1.71602 2.777538,3.02744 2.507755,3.091253 5.531202,5.959888 7.949775,7.542705 4.007405,2.62262 9.179652,4.625907 13.525159,5.238491 2.618725,0.369161 9.75762,0.14872 12.029309,-0.371451 3.961265,-0.907049 7.907838,-2.547349 10.724312,-4.457307 1.451018,-0.983988 4.66869,-3.649975 5.63496,-4.668818 0.40385,-0.425821 0.82629,-0.774221 0.938755,-0.774221 0.112465,0 0.136378,1.096875 0.05314,2.4375 -0.397453,6.401262 2.869117,12.345024 8.406647,15.296494 4.24002,2.25991 10.49808,2.41696 14.96775,0.37562 0.74282,-0.33924 1.39901,-0.56838 1.45821,-0.50918 0.15792,0.15792 -3.55972,4.23979 -5.76424,6.32898 -8.388625,7.94979 -18.963962,13.55001 -30.311782,16.05176 -4.298897,0.94774 -7.856454,1.26975 -13.808054,1.24982 -4.808952,-0.0161 -6.208662,-0.11114 -9.174695,-0.62295 z"
     id="path1134"
     transform="translate(-0.004,-0.001)" />
  <path
     style="fill:#c5c7fb;fill-opacity:1.0;fill-rule:evenodd;stroke-width:0.25"
     d="m 100.99999,104.16962 c -6.8372,-1.74432 -11.557445,-7.199692 -12.045374,-13.921327 -0.273399,-3.766295 0.159369,-5.195042 3.381319,-11.163142 2.534205,-4.694175 3.52917,-8.46992 3.717448,-14.107169 0.157857,-4.726408 -0.218668,-7.5191 -1.553298,-11.520857 C 91.878663,45.59705 86.387374,39.070581 79.086878,35.138328 75.876337,33.409041 70.385211,31.645491 68.124997,31.617771 c -0.830779,-0.01019 -0.786558,-0.05267 0.875,-0.84049 4.608616,-2.185167 7.744431,-5.940776 8.990361,-10.767307 0.504358,-1.953801 0.498978,-5.993445 -0.01062,-7.973888 C 76.835936,7.5909449 73.624925,3.5448381 69.532699,1.3922025 L 68.074224,0.62499997 h 1.055802 c 1.568961,0 6.013726,0.68828243 8.99497,1.39289263 11.600966,2.7418617 21.759392,8.3796464 30.141934,16.7283554 5.58816,5.565606 8.80056,10.022823 12.24928,16.995943 8.7026,17.596146 8.82867,37.633903 0.3481,55.323277 -3.55384,7.412852 -5.52182,9.910442 -9.2602,11.752282 -2.43324,1.19882 -3.50423,1.46792 -6.60412,1.65937 -1.70538,0.10532 -2.67358,0.0309 -4,-0.3075 z"
     id="path906"
     transform="translate(-0.004,-0.001)" />
  <path
     style="fill:#c5c7fb;fill-opacity:1;fill-rule:evenodd;stroke-width:0.25"
     d="m 100.24999,103.78044 c -3.842987,-1.25652 -6.553205,-3.23085 -8.565884,-6.24005 -1.762509,-2.63517 -2.337334,-4.437032 -2.491905,-7.811192 -0.161753,-3.530935 0.04826,-4.258835 2.804151,-9.71901 3.293613,-6.525554 4.126068,-9.857212 4.125281,-16.510191 C 96.121145,59.392262 95.878395,57.626542 94.857628,54.30584 92.549782,46.798103 88.015358,40.727268 81.5187,36.447248 78.298522,34.325786 72.576285,32.072123 69.386589,31.669101 l -1.386592,-0.175198 2,-1.09431 c 2.721127,-1.488882 5.477083,-4.274344 6.721257,-6.79322 1.316796,-2.665901 1.647355,-4.166002 1.650775,-7.491349 0.0036,-3.454154 -0.36671,-5.057648 -1.807208,-7.8264672 C 75.291759,5.841571 72.521882,2.9470301 70.124996,1.5588962 l -1.624999,-0.94110373 1.25,0.14143959 C 87.372103,2.7532029 102.40518,10.974151 113.40497,24.632266 c 3.32378,4.127045 7.09253,10.816552 9.3579,16.610242 4.7925,12.256804 5.49717,26.182751 1.97514,39.033595 -2.11595,7.720503 -6.58406,16.837575 -9.80554,20.007997 -3.54982,3.49356 -9.9961,5.02861 -14.68248,3.49634 z"
     id="path982"
     transform="translate(-0.004,-0.001)" />
  <path
     style="fill:#8593f5;fill-opacity:1.0;fill-rule:evenodd;stroke-width:0.25"
     d="m 53.999997,126.2458 c -7.136267,-1.25741 -12.002689,-2.85207 -18.363716,-6.01754 -6.715838,-3.34204 -11.334606,-6.6638 -16.645348,-11.97113 -4.625194,-4.62223 -7.631566,-8.991743 -8.347307,-12.132135 -0.141022,-0.61875 -0.257261,-2.475 -0.25831,-4.125 -0.0018,-2.81092 0.04935,-3.126052 0.811371,-4.999999 1.935278,-4.75921 5.594914,-8.153561 10.235875,-9.493881 1.91117,-0.551951 5.974941,-0.552503 7.871804,-0.0011 1.641091,0.477078 4.086729,1.655577 5.252946,2.53128 0.444024,0.333413 1.695894,1.699135 2.781939,3.034938 4.314657,5.306911 8.284342,8.356744 13.906329,10.683973 3.770695,1.560883 6.497017,2.142331 10.785402,2.300221 9.927337,0.365505 17.252484,-2.306416 24.382344,-8.893708 0.91483,-0.845214 1.73102,-1.536753 1.813755,-1.536753 0.08273,0 0.08232,1.096875 -0.001,2.4375 -0.109655,1.766088 -0.04244,2.95397 0.244005,4.312499 1.268157,6.014419 6.052479,10.980295 11.908624,12.360505 3.47871,0.81989 8.70298,0.31449 11.5002,-1.11254 0.57445,-0.29307 1.09912,-0.47818 1.16593,-0.41137 0.17011,0.1701 -3.45037,4.15961 -5.84891,6.44508 -4.4711,4.26032 -9.841485,7.96883 -15.696015,10.83885 -5.636317,2.76305 -11.078912,4.55589 -17.124999,5.64115 -2.62628,0.47141 -4.222182,0.57409 -9.999999,0.64338 -6.406272,0.0768 -7.113625,0.0404 -10.375,-0.53425 z"
     id="path1021"
     transform="translate(-0.004,-0.001)" />
</svg>
